<svg enable-background="new 0 0 587.5 587.5" viewBox="0 0 587.5 587.5" xmlns="http://www.w3.org/2000/svg"><path d="m369.1 183.4v-123.1h209.8v200h-209.8z" fill="#dddeeb"/><path d="m0 496.6v-5.4h587.5v8.9h-587.5z" fill="#a3a5c4"/><path d="m513.8 450.3h-10.4c-7.4 0-13.4-6-13.4-13.4v-1.4s0 0 0-21.3 15-24.2 15-34.7c0-10.4-12.1-24.1-12.1-24.1h19.9 1.9 19.9s-12.1 13.6-12.1 24.1c0 10.4 15 13.3 15 34.7v21.3 1.4c0 7.4-6 13.4-13.4 13.4z" fill="#dddeeb" stroke="#fff" stroke-miterlimit="10" stroke-width="2"/><circle cx="91.1" cy="108.9" fill="#dddeeb" r="48.7"/><circle cx="91.1" cy="108.9" fill="#dddeeb" r="38" stroke="#fff" stroke-miterlimit="10" stroke-width="3"/><path d="m538.8 128c-11.7 11.7-30.7 11.7-42.4 0-2.7-2.7-4.7-5.7-6.2-9 11 4.9 24.4 2.9 33.4-6.2 9-9 11.1-22.4 6.2-33.4 3.3 1.5 6.3 3.5 9 6.2 11.7 11.7 11.7 30.7 0 42.4z" fill="#fff" stroke="#dddeeb" stroke-miterlimit="10" stroke-width="2"/><path d="m91.1 93.3v15.6l19.8-19.7" fill="#dddeeb" stroke="#fff" stroke-miterlimit="10" stroke-width="4"/><path d="m238.9 478c0-6.6-4.8-12.4-11.4-13.2-.3 0-.6-.1-.9-.1-1.2-.1-2.4-.1-3.6 0-6.9.4-12.3 6.3-12.3 13.3v1.1h28.1v-1.1z" fill="#bfbede"/><path d="m194.5 469.3c3.2-10.9 13.8-17 23-14.8 4.2 1 7.8 3.7 10.3 7.3 2.4 3.4 3.5 7.5 3.5 11.6v5.6h-11.7" fill="#bfbede"/><path d="m172.9 466.2c4.1-14.2 17.9-22.1 29.8-19.2 5.4 1.3 10.1 4.8 13.4 9.5 3.1 4.4 4.5 9.7 4.5 15.1v7.2h-20.8" fill="#bfbede"/><path d="m208.6 474.8c.2-1 1.6-10.3-5.3-17.6-7.3-7.8-17.5-6.4-18.3-6.2" fill="none" stroke="#8f8fb4" stroke-linecap="round" stroke-miterlimit="10" stroke-width="3"/><path d="m169.4 469.3c3.2-10.9 13.8-17 23-14.8 4.2 1 7.8 3.7 10.3 7.3 2.4 3.4 3.5 7.5 3.5 11.6v5.6h-11.7" fill="#bfbede"/><path d="m193.9 479.7c1.5-6.2-.8-12.6-5.7-16.3-6.5-4.8-14.1-2.1-14.7-1.9" fill="none" stroke="#8f8fb4" stroke-linecap="round" stroke-miterlimit="10" stroke-width="3"/><path d="m192.4 478c0-6.6-4.8-12.4-11.4-13.2-.3 0-.6-.1-.9-.1-1.2-.1-2.4-.1-3.6 0-6.9.4-12.3 6.3-12.3 13.3v1.1h28.1v-1.1z" fill="#bfbede"/><path d="m167.7 470.4c-.3.3-.9 1.1-1.2 2.3-.3 1-.1 1.9 0 2.3 2.9.1 5.8.1 8.7.1h2.6c-3.8-1-7.2-2.5-10.1-4.7z" fill="#8f8fb4"/><path d="m187.3 472.9c-.5-.8-1.7-2.2-3.6-3.2-1.9-1.1-3.8-1.3-4.7-1.4" style="opacity:.8;fill:none;stroke:#fff;stroke-width:6;stroke-linecap:round;stroke-miterlimit:10"/><path d="m200.6 464.9c-.4-.9-1.5-3-3.9-4.5-2.1-1.4-4.1-1.7-5.1-1.8" style="opacity:.8;fill:none;stroke:#fff;stroke-width:6;stroke-linecap:round;stroke-miterlimit:10"/><path d="m213.7 457.7c-.5-1-1.2-2.3-2.3-3.6-1.7-2-3.6-3.1-4.8-3.8" style="opacity:.8;fill:none;stroke:#fff;stroke-width:6;stroke-linecap:round;stroke-miterlimit:10"/><path d="m227.1 465.5c-.2-.7-.7-1.9-1.7-3.1-1.1-1.3-2.2-2-2.9-2.4" style="opacity:.8;fill:none;stroke:#fff;stroke-width:6;stroke-linecap:round;stroke-miterlimit:10"/><path d="m194.5 474.8h43.3" fill="none" stroke="#8f8fb4" stroke-linecap="round" stroke-miterlimit="10" stroke-width="3"/><path d="m214.3 452.3c1.1 0 2.1.2 3.2.4 4.1 1 7.8 3.7 10.3 7.3.7 1.1 1.3 2.2 1.8 3.4 1.1 2.6 1.6 5.4 1.6 8.3v5.6" fill="none" stroke="#000" stroke-miterlimit="10" stroke-width="4"/><path d="m220.7 477.1v-7.2c0-2.1-.2-4.3-.7-6.3-.7-3.1-2-6.1-3.8-8.8-.6-.8-1.2-1.6-1.9-2.4-3.1-3.5-7.1-6.1-11.5-7.1-9.6-2.3-20.4 2.4-26.4 11.7" fill="none" stroke="#000" stroke-miterlimit="10" stroke-width="4"/><path d="m206.2 477.3v-.2-5.3c0-4.1-1.1-8.2-3.5-11.6-.6-.9-1.3-1.8-2.1-2.6-2.3-2.3-5.1-4-8.2-4.8-5.5-1.3-11.5.3-16.1 4.2-2.5 2.1-4.6 4.8-6 8.1" fill="none" stroke="#000" stroke-miterlimit="10" stroke-width="4"/><path d="m192.4 476.2c0-6.6-4.8-12.4-11.4-13.2-.3 0-.6-.1-.9-.1-1.2-.1-2.4-.1-3.6 0-6.9.4-12.3 6.3-12.3 13.3v1.1h28.1v-1.1z" fill="none" stroke="#000" stroke-miterlimit="10" stroke-width="4"/><path d="m192.4 477.3h46.5v-1.1c0-5.9-3.8-11.1-9.3-12.7" fill="none" stroke="#000" stroke-miterlimit="10" stroke-width="4"/><path d="m253.6 478.9v3.3l-5.2 3.6-5.8 3.4h-40-40.1l-5.8-3.4-5.2-3.6v-3.3z" fill="#bfbede"/><path d="m253.6 486.7-5.2 1.3-5.8 1.2h-80.1l-5.8-1.2-5.2-1.3z" fill="#8f8fb4"/><path d="m253.6 478.9v3.3l-5.2 3.6-5.8 3.4h-40.1-40.1l-5.8-3.4-5.2-3.6v-3.3zm4-4h-4-102.1-4v4 3.3 2.1l1.7 1.2 5.2 3.6.1.1.1.1 5.8 3.4.9.6h1.1 40.1 40.1 1.1l.9-.6 5.8-3.4.1-.1.1-.1 5.2-3.6 1.7-1.2v-2.1-3.3-4z"/><path d="m513.8 360c.6-4.4 2.2-11.1 6.8-17.9 10.3-15.3 27.4-18.3 31-18.9" fill="none" stroke="#dddeeb" stroke-miterlimit="10" stroke-width="3"/><path d="m523.9 337.9c.8.5 13.7 8.3 27.3 1.7 11.7-5.6 14.6-17.3 15-18.9-1.8-1.4-4.7-3.3-8.7-4.4-1.9-.5-3.7-.7-5.2-.8" fill="none" stroke="#dddeeb" stroke-miterlimit="10" stroke-width="3"/><path d="m525.7 336c-.2-.7-2.1-6.8 1.7-12.3 3.4-4.9 8.8-5.7 9.7-5.8" fill="none" stroke="#dddeeb" stroke-miterlimit="10" stroke-width="3"/><path d="m521.6 364.6c2.5-2.6 6.8-6.4 13-8.7 14.1-5.3 27 .8 29.6 2.2" fill="none" stroke="#dddeeb" stroke-miterlimit="10" stroke-width="3"/><path d="m538.8 354.7c.3.7 5.1 12 17.3 14.1 10.4 1.8 18-4.6 19-5.4-.7-1.7-1.6-3.7-2.9-5.8-1.8-2.8-3.7-4.9-5.3-6.5" fill="none" stroke="#dddeeb" stroke-miterlimit="10" stroke-width="3"/><path d="m540.9 354.2c.2-.6 1.8-5.5 7-7.4 4.6-1.7 8.6.4 9.2.7" fill="none" stroke="#dddeeb" stroke-miterlimit="10" stroke-width="3"/><path d="m509.1 361.6c.8-4.3 1.4-11.3-.8-19.2-4.9-17.8-20.2-26.1-23.4-27.7" fill="none" stroke="#dddeeb" stroke-miterlimit="10" stroke-width="3"/><path d="m506.6 337.5c-.9.2-15.6 3.6-26.5-7-9.3-9-8.4-21.1-8.3-22.7 2.2-.8 5.5-1.6 9.7-1.4 2 .1 3.7.5 5.2.9" fill="none" stroke="#dddeeb" stroke-miterlimit="10" stroke-width="3"/><path d="m505.5 335.1c.4-.6 4.2-5.7 2.3-12.2-1.7-5.8-6.6-8.2-7.4-8.6" fill="none" stroke="#dddeeb" stroke-miterlimit="10" stroke-width="3"/><path d="m505.2 364.6c-1.9-3-5.3-7.5-10.9-11-12.6-7.9-26.3-4.6-29.1-3.8" fill="none" stroke="#dddeeb" stroke-miterlimit="10" stroke-width="3"/><path d="m490.6 351.6c-.4.6-7.4 10.6-19.6 10.2-10.5-.3-16.5-8-17.3-9 1-1.5 2.3-3.3 4-5 2.3-2.4 4.5-4 6.4-5.2" fill="none" stroke="#dddeeb" stroke-miterlimit="10" stroke-width="3"/><path d="m488.6 350.8c-.1-.6-.6-5.7-5.3-8.5-4.2-2.5-8.4-1.3-9.1-1.1" fill="none" stroke="#dddeeb" stroke-miterlimit="10" stroke-width="3"/><path d="m402.3 488h-37.7c-2.3 0-4.1-1.8-4.1-4.1v-1c0-2.3 1.8-4.1 4.1-4.1h18.4c2.3 0 4.1-1.8 4.1-4.1v-.1c0-2.3-1.8-4.1-4.1-4.1h-42.9c-2.3 0-4.1-1.8-4.1-4.1 0-2.3 1.8-4.1 4.1-4.1h18c2.3 0 4.1-1.8 4.1-4.1v-77.6" fill="none" stroke="#000" stroke-miterlimit="10" stroke-width="4"/><path d="m467.2 490.1c0-14.2-14.5-25.6-32.5-25.6-17.9 0-32.5 11.5-32.5 25.6z" fill="#bfbede"/><path d="m467.2 490.1c0-14.2-14.5-25.6-32.5-25.6-17.9 0-32.5 11.5-32.5 25.6z" fill="none" stroke="#000" stroke-miterlimit="10" stroke-width="4"/><path d="m458.4 483.1c-.5-1-1.2-2.3-2.3-3.6-1.7-2-3.6-3.1-4.8-3.8" style="opacity:.8;fill:none;stroke:#fff;stroke-width:6;stroke-linecap:round;stroke-miterlimit:10"/><path d="m332.9 441.7c-.2-.5-.6-1-1.1-1.6-1-1.2-2.2-1.7-2.9-1.9" style="opacity:.8;fill:none;stroke:#fff;stroke-width:4;stroke-linecap:round;stroke-miterlimit:10"/><path d="m429.2 465.7v15.3h-24.6" fill="none" stroke="#000" stroke-miterlimit="10" stroke-width="4"/><path d="m274 348.8h39.5v92.4h-39.5z" fill="#bfbede"/><path d="m316.3 351.9v33.8h-21c-7.6 0-13.7 6.1-13.7 13.7v31.7h-10v-79.2z" fill="#8f8fb4"/><path d="m313.5 348.8v92.4h-39.5v-92.4zm4-4h-4-39.5-4v4 92.4 4h4 39.5 4v-4-92.4z"/><path d="m347.6 446h-107.7v-.7c0-6.4 5.2-11.6 11.6-11.6h84.6c6.4 0 11.6 5.2 11.6 11.6v.7z" fill="#bfbede"/><path d="m336.1 433.8c6.4 0 11.6 5.2 11.6 11.6v.7h-107.8v-.7c0-6.4 5.2-11.6 11.6-11.6zm0-4h-84.6c-8.6 0-15.6 7-15.6 15.6v.7 4h4 107.7 4v-4-.7c0-8.7-7-15.6-15.5-15.6z"/><path d="m149.5 379.5c-4.3 0-7.8-3.5-7.8-7.8v-182.5c0-4.3 3.5-7.8 7.8-7.8h288.5c4.3 0 7.8 3.5 7.8 7.8v182.4c0 4.3-3.5 7.8-7.8 7.8h-288.5z" fill="#bfbede"/><path d="m438 183.4c3.2 0 5.8 2.6 5.8 5.8v182.4c0 3.2-2.6 5.8-5.8 5.8h-288.5c-3.2 0-5.8-2.6-5.8-5.8v-182.4c0-3.2 2.6-5.8 5.8-5.8zm0-4h-288.5c-5.4 0-9.8 4.4-9.8 9.8v182.4c0 5.4 4.4 9.8 9.8 9.8h288.5c5.4 0 9.8-4.4 9.8-9.8v-182.4c.1-5.4-4.3-9.8-9.8-9.8z"/><path d="m156.7 196.4h274.2v168h-274.2z" fill="#fff"/><path d="m428.9 198.4v164h-270.2v-164zm4-4h-4-270.2-4v4 164 4h4 270.2 4v-4-164z"/><g stroke-miterlimit="10"><path d="m171.5 212.4h32" fill="none" stroke="#bfbede" stroke-width="4"/><path d="m210 212.4h36.4" fill="none" stroke="#bfbede" stroke-width="4"/><path d="m171.5 222.3h18.4" fill="none" stroke="#bfbede" stroke-width="4"/><path d="m195.7 222.3h59.9" fill="none" stroke="#bfbede" stroke-width="4"/><path d="m260.4 222.3h11.2" fill="none" stroke="#bfbede" stroke-width="4"/><path d="m171.5 232.2h38.5" fill="none" stroke="#bfbede" stroke-width="4"/><path d="m171.5 240.5h32" fill="none" stroke="#bfbede" stroke-width="4"/><path d="m210 240.5h36.4" fill="none" stroke="#bfbede" stroke-width="4"/><path d="m171.5 250.4h18.4" fill="none" stroke="#bfbede" stroke-width="4"/><path d="m195.7 250.4h59.9" fill="none" stroke="#bfbede" stroke-width="4"/><path d="m260.4 250.4h11.2" fill="none" stroke="#bfbede" stroke-width="4"/><path d="m171.5 260.3h38.5" fill="none" stroke="#bfbede" stroke-width="4"/><path d="m215.4 260.3h28" fill="none" stroke="#bfbede" stroke-width="4"/><path d="m171.5 268.6h32" fill="none" stroke="#bfbede" stroke-width="4"/><path d="m171.5 278.5h18.4" fill="none" stroke="#bfbede" stroke-width="4"/><path d="m195.7 278.5h59.9" fill="none" stroke="#bfbede" stroke-width="4"/><path d="m171.5 288.3h38.5" fill="none" stroke="#bfbede" stroke-width="4"/><path d="m215.4 288.3h28" fill="none" stroke="#bfbede" stroke-width="4"/></g><path d="m379.7 315.4 20.3 8.5-4.1 4.1 3.7 3.7-3.7 3.6-3.7-3.7-4 4.1z" fill="#fff"/><path d="m381.5 317.3 16.7 7-3.7 3.7 3.7 3.7-2.2 2.2-3.7-3.7-3.7 3.7zm-3.7-3.8 1.9 4.5 7 16.7 1.2 2.8 2.1-2.1 2.3-2.3 2.3 2.3 1.4 1.4 1.4-1.4 2.2-2.2 1.4-1.4-1.4-1.4-2.3-2.3 2.3-2.3 2.1-2.1-2.8-1.2-16.7-7z"/><path d="m345.2 220.3 37.2 1.6 15.7 27.7-16.1 33.8-36.8-3.3-17.3-26.4z" fill="none" stroke="#bfbede" stroke-miterlimit="10" stroke-width="4"/><path d="m354.2 238.7-9-18.4" fill="none" stroke="#bfbede" stroke-miterlimit="10" stroke-width="4"/><path d="m382.4 221.9-28.2 16.8" fill="none" stroke="#bfbede" stroke-miterlimit="10" stroke-width="4"/><path d="m398.1 249.6-8.7 8.5" fill="none" stroke="#bfbede" stroke-miterlimit="10" stroke-width="4"/><path d="m382.4 221.9 7 36.2" fill="none" stroke="#bfbede" stroke-miterlimit="10" stroke-width="4"/><path d="m327.9 253.7 26.3-15" fill="none" stroke="#bfbede" stroke-miterlimit="10" stroke-width="4"/><path d="m354.2 278.6v-39.9" fill="none" stroke="#bfbede" stroke-miterlimit="10" stroke-width="4"/><path d="m327.9 253.7 26.3 24.9" fill="none" stroke="#bfbede" stroke-miterlimit="10" stroke-width="4"/><path d="m354.2 278.6 35.2-20.5-35.2-19.4" fill="none" stroke="#bfbede" stroke-miterlimit="10" stroke-width="4"/><path d="m382 283.4 7.4-25.3" fill="none" stroke="#bfbede" stroke-miterlimit="10" stroke-width="4"/><path d="m354.2 278.6 27.8 4.8" fill="none" stroke="#bfbede" stroke-miterlimit="10" stroke-width="4"/><path d="m354.2 278.6-9 1.5" fill="none" stroke="#bfbede" stroke-miterlimit="10" stroke-width="4"/><path d="m293.8 204.2v151.9" fill="none" stroke="#bfbede" stroke-miterlimit="10" stroke-width="4"/><path d="m171.5 308.2h102.5v31.2h-102.5z" fill="none" stroke="#bfbede" stroke-miterlimit="10" stroke-width="4"/><path d="m193.2 320c-1.8 0-2.4 1.8-2.4 3.9s.7 3.6 2.6 3.6c.6 0 1.1-.1 1.4-.3.4-.2.8-.3 1.2-.3.7 0 1.1.5 1.1 1.1 0 .3-.1.7-.6 1-.8.5-2.4.8-3.4.8-3.5 0-5-2.7-5-6.1 0-3.2 1.4-6.1 4.9-6.1 1 0 1.9.2 2.5.5.9.4 1.4 1 1.5 2.1v.5c.1 1-.5 1.4-1.1 1.4s-1.1-.4-1.2-1.2l-.1-.7c-.3-.1-.9-.2-1.4-.2z" fill="#bfbede"/><path d="m198.4 323.7c0-3.2 1.4-6.1 5-6.1s5 2.9 5 6.1-1.4 6.1-5 6.1-5-2.9-5-6.1zm7.4 0c0-1.6-.5-3.8-2.4-3.8s-2.4 2.1-2.4 3.8c0 1.9.6 3.7 2.4 3.7 1.8.1 2.4-1.7 2.4-3.7z" fill="#bfbede"/><path d="m210.4 319c0-.7.6-1.3 1.3-1.3s1.1.3 1.4.8l2.5 5 2.5-5c.3-.5.7-.8 1.4-.8s1.3.6 1.3 1.3v9.5c0 .7-.6 1.3-1.3 1.3s-1.3-.6-1.3-1.3v-5.2h-.1l-1.2 2.5c-.2.5-.7.8-1.3.8s-1.1-.3-1.3-.8l-1.2-2.5h-.1v5.2c0 .7-.6 1.3-1.3 1.3s-1.3-.6-1.3-1.3z" fill="#bfbede"/><path d="m223.1 319.1c0-.7.6-1.3 1.3-1.3h2.6c2.6 0 4.6 1.6 4.6 4.2 0 2.3-2 4.2-4.6 4.2h-1.3v2.4c0 .7-.6 1.3-1.3 1.3s-1.3-.6-1.3-1.3zm3.9 4.8c1.2 0 2.1-.9 2.1-1.9 0-1.2-.8-1.9-2.1-1.9h-1.3v3.8z" fill="#bfbede"/><path d="m233.5 327.4h1v-7.3h-1c-.6 0-1.1-.5-1.1-1.1s.5-1.1 1.1-1.1h4.6c.6 0 1.1.5 1.1 1.1s-.5 1.1-1.1 1.1h-1v7.3h1c.6 0 1.1.5 1.1 1.1s-.5 1.1-1.1 1.1h-4.6c-.6 0-1.1-.5-1.1-1.1s.5-1.1 1.1-1.1z" fill="#bfbede"/><path d="m240.9 319c0-.7.6-1.3 1.3-1.3s1.3.6 1.3 1.3v8.4h3.7c.6 0 1.1.5 1.1 1.1s-.5 1.1-1.1 1.1h-5c-.7 0-1.3-.6-1.3-1.3z" fill="#bfbede"/><path d="m249.7 319.1c0-.7.6-1.3 1.3-1.3h5.3c.6 0 1.1.5 1.1 1.1s-.5 1.1-1.1 1.1h-4v2.3h3c.6 0 1.1.5 1.1 1.1s-.5 1.1-1.1 1.1h-3v2.6h4c.6 0 1.1.5 1.1 1.1s-.5 1.1-1.1 1.1h-5.3c-.7 0-1.3-.6-1.3-1.3z" fill="#bfbede"/><path d="m272.4 432c-8.5-1.1-16.3 2.2-19.7 8.2-1.8 3.2-1.9 6.5-1.8 8.7" fill="none"/><path d="m260 433.8c-3.1 1.4-5.7 3.6-7.2 6.4-1.1 2-1.6 4-1.8 5.8h-11.1v-.7c0-6.4 5.2-11.6 11.6-11.6h8.5z" fill="#8f8fb4"/><path d="m243 482.7h-17.6" style="opacity:.8;fill:none;stroke:#fff;stroke-width:3;stroke-linecap:round;stroke-miterlimit:10"/><path d="m48.6 468.5c-12.1 0-21.9-9.8-21.9-21.9s9.8-21.9 21.9-21.9h17.3v43.7h-17.3zm.5-35c-7.3 0-13.2 5.9-13.2 13.2 0 3.5 1.4 6.8 3.9 9.3s5.8 3.9 9.3 3.9h7.6v-26.4z" fill="#bfbede"/><path d="m63.8 426.8v39.7h-15.2c-11 0-19.9-8.9-19.9-19.9s8.9-19.9 19.9-19.9h15.2m-14.7 35.1h9.6v-30.4h-9.6c-8.4 0-15.2 6.8-15.2 15.2 0 4.2 1.7 8 4.4 10.7 2.8 2.8 6.6 4.5 10.8 4.5m18.7-39h-4-15.2c-13.2 0-23.9 10.7-23.9 23.9s10.7 23.9 23.9 23.9h15.3 4v-4-39.7-4.1zm-18.7 35c-3 0-5.8-1.2-7.9-3.3s-3.3-4.9-3.3-7.9c0-6.2 5-11.2 11.2-11.2h5.6v22.4z"/><path d="m53.1 423.9v-8.9c0-4.5 3.7-8.2 8.2-8.2h4.6c4.5 0 8.2-3.7 8.2-8.2v-6.8c0-4.5 3.7-8.2 8.2-8.2h3.4c4.5 0 8.2-3.7 8.2-8.2v-4.8c0-4.5 3.7-8.2 8.2-8.2h4.8c4.5 0 8.2-3.7 8.2-8.2v-4.8c0-4.5 3.7-8.2 8.2-8.2h9.6c4.5 0 8.2 3.7 8.2 8.2v4.8c0 4.5 3.7 8.2 8.2 8.2h.7c4.5 0 8.2 3.7 8.2 8.2v6.2c0 4.5-3.7 8.2-8.2 8.2-4.5 0-8.2 3.7-8.2 8.2v6.2c0 4.5-3.7 8.2-8.2 8.2h-9.6c-4.5 0-8.2 3.7-8.2 8.2v8.2" fill="#bfbede" opacity=".62"/><path d="m93.8 489.2h-19.5c-10.8 0-19.5-8.7-19.5-19.5v-42.9h58.6v42.9c-.1 10.8-8.8 19.5-19.6 19.5z" fill="#bfbede"/><path d="m83.2 489.2h-14.2c-7.9 0-14.2-6.4-14.2-14.2v-48.2h14.2v48.2c0 7.9 6.3 14.2 14.2 14.2z" fill="#8f8fb4"/><path d="m105.7 434.8v31.7" style="opacity:.8;fill:none;stroke:#fff;stroke-width:6;stroke-linecap:round;stroke-miterlimit:10"/><path d="m105.7 477.4v.1" style="opacity:.8;fill:none;stroke:#fff;stroke-width:6;stroke-linecap:round;stroke-miterlimit:10"/><path d="m113.3 426.8v42.9c0 10.8-8.7 19.5-19.5 19.5h-19.5c-10.8 0-19.5-8.7-19.5-19.5v-42.9zm4-4h-4-58.5-4v4 42.9c0 13 10.6 23.5 23.5 23.5h19.5c13 0 23.5-10.6 23.5-23.5v-42.9z"/></svg>