<svg enable-background="new 0 0 124.7 100.8" viewBox="0 0 124.7 100.8" xmlns="http://www.w3.org/2000/svg"><g stroke="#000" stroke-linecap="round" stroke-linejoin="round" stroke-miterlimit="10" stroke-width="3"><path d="m123.2 41.4c0 11-4.5 21-11.7 28.2s-17 11.6-27.9 11.7c12.9-8.6 21.4-23.3 21.4-39.9 0-13.2-5.3-25.2-14-33.8-2.2-2.2-4.7-4.3-7.3-6 21.8.1 39.5 17.9 39.5 39.8z"/><g fill="none"><path d="m92.5 99.3-29.7-58"/><path d="m62.8 41.3-11.3 22.1"/><path d="m83.2 1.6-20.4 39.7"/><path d="m62.8 41.3-20.4-39.7"/><path d="m1.5 99.3v-97.7"/></g><path d="m51.5 63.4-31.7-61.8-18.3-.1 40.9 79.7z"/></g></svg>