<?xml version="1.0" encoding="utf-8"?>
<!-- Generator: Adobe Illustrator 22.0.1, SVG Export Plug-In . SVG Version: 6.00 Build 0)  -->
<svg version="1.1" id="Layer_1" xmlns="http://www.w3.org/2000/svg" xmlns:xlink="http://www.w3.org/1999/xlink" x="0px" y="0px"
	 viewBox="0 0 124.7 100.8" style="enable-background:new 0 0 124.7 100.8;" xml:space="preserve">
<style type="text/css">
	.st0{stroke:#000000;stroke-width:3;stroke-linecap:round;stroke-linejoin:round;stroke-miterlimit:10;}
	.st1{fill:none;stroke:#000000;stroke-width:3;stroke-linecap:round;stroke-linejoin:round;stroke-miterlimit:10;}
</style>
<path class="st0" d="M123.2,41.4c0,11-4.5,21-11.7,28.2c-7.2,7.2-17,11.6-27.9,11.7C96.5,72.7,105,58,105,41.4
	c0-13.2-5.3-25.2-14-33.8c-2.2-2.2-4.7-4.3-7.3-6C105.5,1.7,123.2,19.5,123.2,41.4z"/>
<line class="st1" x1="92.5" y1="99.3" x2="62.8" y2="41.3"/>
<line class="st1" x1="62.8" y1="41.3" x2="51.5" y2="63.4"/>
<line class="st1" x1="83.2" y1="1.6" x2="62.8" y2="41.3"/>
<line class="st1" x1="62.8" y1="41.3" x2="42.4" y2="1.6"/>
<line class="st1" x1="1.5" y1="99.3" x2="1.5" y2="1.6"/>
<polygon class="st0" points="51.5,63.4 19.8,1.6 1.5,1.5 42.4,81.2 "/>
<path class="st1" d="M63,41.5"/>
<path class="st1" d="M83.4,81.2"/>
</svg>
